<svg width="1593" height="444" viewBox="0 0 1593 444" fill="none" xmlns="http://www.w3.org/2000/svg">
<g filter="url(#filter0_f_193_42)">
<path d="M222 410.086C325.877 410.086 410.086 325.877 410.086 222C410.086 118.123 325.877 33.914 222 33.914C118.123 33.914 33.914 118.123 33.914 222C33.914 325.877 118.123 410.086 222 410.086Z" stroke="url(#paint0_linear_193_42)" stroke-width="30" stroke-linecap="square"/>
</g>
<path d="M222 410.086C325.877 410.086 410.086 325.877 410.086 222C410.086 118.123 325.877 33.914 222 33.914C118.123 33.914 33.914 118.123 33.914 222C33.914 325.877 118.123 410.086 222 410.086Z" stroke="url(#paint1_linear_193_42)" stroke-width="30" stroke-linecap="square"/>
<path d="M222 72.4727C193.334 72.4727 170.256 95.5504 170.256 124.217V170.256H124.217C95.5504 170.256 72.4727 193.334 72.4727 222C72.4727 250.666 95.5504 273.744 124.217 273.744H170.256V319.783C170.256 348.45 193.334 371.527 222 371.527C250.666 371.527 273.744 348.45 273.744 319.783V273.744H319.783C348.45 273.744 371.527 250.666 371.527 222C371.527 193.334 348.45 170.256 319.783 170.256H273.744V124.217C273.744 95.5504 250.666 72.4727 222 72.4727Z" fill="white"/>
<path d="M222 72.4727C193.334 72.4727 170.256 95.5504 170.256 124.217V170.256H124.217C95.5504 170.256 72.4727 193.334 72.4727 222C72.4727 250.666 95.5504 273.744 124.217 273.744H170.256V319.783C170.256 348.45 193.334 371.527 222 371.527C250.666 371.527 273.744 348.45 273.744 319.783V273.744H319.783C348.45 273.744 371.527 250.666 371.527 222C371.527 193.334 348.45 170.256 319.783 170.256H273.744V124.217C273.744 95.5504 250.666 72.4727 222 72.4727Z" fill="url(#paint2_linear_193_42)" stroke="url(#paint3_linear_193_42)" stroke-width="15" stroke-linejoin="round"/>
<g filter="url(#filter1_f_193_42)">
<path d="M228.074 213.231L252.56 187.421C244.812 179 247.335 165.134 254.071 155.707C261.459 145.366 258.789 128.766 239.93 127.421C221.067 126.072 179.307 118.661 167.855 111.924C156.405 105.189 168.865 130.447 178.634 134.829C163.477 134.037 169.542 151.551 185.706 156.603C175.772 159.467 188.907 176.309 205.07 177.654C221.574 181.359 227.569 202.172 228.074 213.231Z" fill="#6B35A9"/>
<path d="M344.077 288.146C337.341 276.695 329.932 234.936 328.584 216.074C327.239 197.215 310.637 194.542 300.295 201.93C290.868 208.666 277.002 211.189 268.587 203.446L242.773 227.93C253.832 228.435 274.647 234.432 278.35 250.934C279.696 267.097 296.537 280.232 299.399 270.295C304.45 286.459 321.964 292.524 321.176 277.37C325.554 287.136 350.813 299.596 344.077 288.146Z" fill="#6B35A9"/>
<path d="M262.421 193.58C269.585 200.744 281.201 200.744 288.365 193.58C295.53 186.416 295.53 174.8 288.365 167.636C281.201 160.471 269.585 160.471 262.421 167.636C255.257 174.8 255.257 186.416 262.421 193.58Z" fill="#6B35A9"/>
<path d="M189.209 230.093C193.488 232.605 197.919 235.239 202.184 237.77C197.064 229.296 193.13 223.444 194.505 216.976C194.999 214.658 196.615 213.162 198.005 212.487C200.838 211.125 203.874 212.337 212.048 216.411C216.899 218.834 220.776 218.7 222.689 216.035C224.053 214.135 224.955 212.996 222.676 209.914C221.359 208.145 220.25 205.811 219.338 203.133C218.26 199.99 215.851 198.237 213.575 195.961C213.246 195.632 212.873 195.317 212.481 195.02C207.033 191.039 200.929 190.169 196.184 191.112C186.261 193.104 175.285 201.199 177.023 217.517C177.307 220.256 178.103 223.054 179.223 225.914C182.486 226.692 185.808 228.069 189.209 230.093Z" fill="#6B35A9"/>
<path d="M133.257 327.833C132.523 334.911 129.903 339.743 126.265 341.226C125.532 341.602 125.895 342.921 126.791 342.593C127.028 342.65 127.646 342.516 130.697 341.315C137.598 338.64 141.264 334.196 143.047 329.176C139.377 328.325 136.1 327.922 133.257 327.833Z" fill="#6B35A9"/>
<path d="M224.994 280.459C219.727 278.093 214.458 274.921 209.28 271.804C207.708 270.863 206.153 269.938 204.594 269.005C204.145 268.74 203.669 268.469 203.214 268.198C204.16 269.828 205.072 271.402 205.939 272.9C209.235 278.587 210.224 285.083 201.198 289.62C196.736 291.864 191.961 290.353 183.519 285.98C182.126 285.249 180.618 284.456 179.001 283.586C177.637 282.821 176.187 282.033 174.628 281.189C174.628 281.189 174.628 281.189 174.615 281.175C173.325 280.458 171.979 279.712 170.573 278.931C169.658 278.436 168.717 277.911 167.742 277.388C163.824 275.262 160.05 274.006 156.486 273.496C154.436 273.18 152.431 273.125 150.515 273.301C144.439 273.842 139.141 276.534 134.904 280.591C129.214 286.008 126.683 295.214 129.561 303.238C129.918 304.258 130.247 305.274 130.56 306.276C133.99 305.811 137.895 305.826 142.358 306.426C142.326 306.336 142.313 306.234 142.279 306.142L141.892 304.704C140.728 300.155 140.444 294.93 142.523 291.831C144.379 289.051 147.493 285.485 156.817 288.375C157.866 288.704 159.017 289.109 160.229 289.632C161.068 289.96 161.966 290.349 162.881 290.785C163.372 291.009 163.837 291.232 164.316 291.474C165.814 292.163 167.28 292.851 168.716 293.508C173.549 295.708 178.056 297.671 182.293 299.301C184.285 300.063 186.198 300.751 188.056 301.353C200.853 305.587 210.584 305.916 217.155 299.345C223.23 293.27 225.758 287.058 224.994 280.459Z" fill="#6B35A9"/>
<path d="M133.18 327.846C133.196 327.83 133.227 327.83 133.256 327.833C133.272 327.817 133.272 327.786 133.269 327.757L133.18 327.846Z" fill="#6B35A9"/>
<path d="M167.414 298.974C170.289 308.314 166.723 311.397 163.958 313.268C160.859 315.347 155.634 315.063 151.083 313.896L149.63 313.494C149.54 313.463 149.438 313.449 149.346 313.415C149.033 313.344 148.704 313.252 148.36 313.176C146.938 312.805 145.335 312.432 143.645 312.146C142.195 311.862 140.665 311.651 139.093 311.515C136.76 311.305 134.365 311.276 131.969 311.549C130.142 311.757 128.347 312.143 126.629 312.758C121.611 314.511 117.152 318.194 114.461 325.079C113.275 328.146 113.139 328.761 113.199 329C112.871 329.897 114.187 330.257 114.56 329.521C116.045 325.886 120.865 323.253 127.93 322.533C127.943 322.699 127.958 322.861 127.956 323.043L128.495 322.472C130.037 322.339 131.701 322.293 133.438 322.354C135.039 322.399 136.7 322.536 138.437 322.775C140.289 323.014 142.221 323.359 144.226 323.808C145.935 324.197 147.688 324.662 149.499 325.216C150.5 325.529 151.517 325.858 152.553 326.231C160.56 329.093 169.777 326.573 175.199 320.888C179.241 316.636 181.948 311.353 182.487 305.274C177.708 303.523 172.681 301.37 167.414 298.974Z" fill="#6B35A9"/>
<path d="M260.768 243.307C260.473 242.918 260.156 242.542 259.814 242.201C257.538 239.925 255.785 237.515 252.655 236.451C249.977 235.539 247.643 234.43 245.877 233.115C242.794 230.837 241.64 231.723 239.753 233.099C237.091 235.015 236.957 238.892 239.38 243.743C243.451 251.915 244.665 254.953 243.298 257.781C242.628 259.176 241.13 260.79 238.81 261.281C232.331 262.646 226.476 258.709 218.005 253.591C217.706 253.412 217.393 253.215 217.093 253.037C215.882 252.304 214.547 251.51 213.093 250.656C211.54 249.728 209.882 248.726 208.113 247.678L203.443 244.895C197.995 241.659 192.066 238.159 186.423 234.819C185.065 234.027 183.73 233.323 182.384 232.755C182.384 232.755 182.384 232.755 182.368 232.739C179.984 231.707 177.621 231.047 175.33 230.794C168.73 230.03 162.52 232.56 156.444 238.636C149.873 245.207 150.199 254.936 154.423 267.748C159.435 268.035 164.644 269.533 169.808 272.269C165.437 263.83 163.926 259.055 166.155 254.576C170.692 245.551 177.188 246.54 182.873 249.833C184.371 250.7 185.961 251.627 187.59 252.574C189.314 253.604 191.109 254.653 192.949 255.746C194.415 256.613 195.898 257.496 197.411 258.379C198.98 259.323 200.568 260.247 202.171 261.194C203.887 262.227 205.624 263.243 207.361 264.261C212.586 267.33 217.855 270.681 223.02 273.391L223.036 273.407C225.337 274.605 227.629 275.698 229.874 276.566C232.736 277.688 235.533 278.482 238.271 278.766C254.589 280.503 262.686 269.53 264.676 259.604C265.622 254.863 264.736 248.742 260.768 243.307Z" fill="#6B35A9"/>
<path d="M121.117 330.122L121.101 330.138L119.621 331.681L116.596 334.79L110.788 340.808L115.191 345.211L120.701 339.883L133.18 327.847C131.13 327.773 129.291 327.878 127.687 328.104C124.681 328.503 122.465 329.283 121.117 330.122Z" fill="#6B35A9"/>
<path d="M148.271 307.489C149.167 307.702 150.111 307.925 151.054 308.18L152.492 308.566C152.655 308.613 152.82 308.658 153.002 308.687L161.982 300.007L164.466 297.612C163.175 297.011 161.845 296.401 160.529 295.767C160.408 295.71 160.289 295.649 160.184 295.607C158.628 294.887 157.28 294.316 156.097 293.912L147.193 303.121L143.795 306.635C145.233 306.848 146.715 307.132 148.271 307.489Z" fill="#6B35A9"/>
<path d="M177.067 276.238C177.622 276.55 178.147 276.834 178.67 277.121C180.302 278.001 181.797 278.813 183.175 279.56L196.121 267.029L198.068 265.177C197.049 264.577 196.061 263.978 195.057 263.395C194.491 263.066 193.937 262.722 193.385 262.407C191.903 261.523 190.452 260.672 189.028 259.815L176.381 272.913L174.526 274.832C175.393 275.31 176.244 275.772 177.067 276.238Z" fill="#6B35A9"/>
<path d="M255.209 191.031L209.265 238.863L207.364 240.821C209.01 241.809 210.61 242.752 212.14 243.651C213.948 244.745 215.656 245.759 217.213 246.69L264.984 200.805C262.991 199.654 261.121 198.261 259.431 196.571C257.738 194.879 256.347 193.01 255.209 191.031Z" fill="#6B35A9"/>
</g>
<path d="M222.074 207.231L246.56 181.421C238.812 173 241.335 159.134 248.071 149.707C255.459 139.366 252.789 122.766 233.93 121.421C215.067 120.072 173.307 112.661 161.855 105.924C150.405 99.1886 162.865 124.447 172.634 128.829C157.477 128.037 163.542 145.551 179.706 150.603C169.772 153.467 182.907 170.309 199.07 171.654C215.574 175.359 221.569 196.172 222.074 207.231Z" fill="url(#paint4_linear_193_42)"/>
<path d="M338.077 282.146C331.341 270.695 323.932 228.936 322.584 210.074C321.239 191.215 304.637 188.542 294.295 195.93C284.868 202.666 271.002 205.189 262.587 197.446L236.773 221.93C247.832 222.435 268.647 228.432 272.35 244.934C273.696 261.097 290.537 274.232 293.399 264.295C298.45 280.459 315.964 286.524 315.176 271.37C319.554 281.136 344.813 293.596 338.077 282.146Z" fill="url(#paint5_linear_193_42)"/>
<path d="M256.421 187.58C263.585 194.744 275.201 194.744 282.365 187.58C289.53 180.416 289.53 168.8 282.365 161.636C275.201 154.471 263.585 154.471 256.421 161.636C249.257 168.8 249.257 180.416 256.421 187.58Z" fill="url(#paint6_linear_193_42)"/>
<path d="M183.209 224.093C187.488 226.605 191.919 229.239 196.184 231.77C191.064 223.296 187.13 217.444 188.505 210.976C188.999 208.658 190.615 207.162 192.005 206.487C194.838 205.125 197.874 206.337 206.048 210.411C210.899 212.834 214.776 212.7 216.689 210.035C218.053 208.135 218.955 206.996 216.676 203.914C215.359 202.145 214.25 199.811 213.338 197.133C212.26 193.99 209.851 192.237 207.575 189.961C207.246 189.632 206.873 189.317 206.481 189.02C201.033 185.039 194.929 184.169 190.184 185.112C180.261 187.104 169.285 195.199 171.023 211.517C171.307 214.256 172.103 217.054 173.223 219.914C176.486 220.692 179.808 222.069 183.209 224.093Z" fill="url(#paint7_linear_193_42)"/>
<path d="M127.257 321.833C126.523 328.911 123.903 333.743 120.265 335.226C119.532 335.602 119.895 336.921 120.791 336.593C121.028 336.65 121.646 336.516 124.697 335.315C131.598 332.64 135.264 328.196 137.047 323.176C133.377 322.325 130.1 321.922 127.257 321.833Z" fill="url(#paint8_linear_193_42)"/>
<path d="M218.994 274.459C213.727 272.093 208.458 268.921 203.28 265.804C201.708 264.863 200.153 263.938 198.594 263.005C198.145 262.74 197.669 262.469 197.214 262.198C198.16 263.828 199.072 265.402 199.939 266.9C203.235 272.587 204.224 279.083 195.198 283.62C190.736 285.864 185.961 284.353 177.519 279.98C176.126 279.249 174.618 278.456 173.001 277.586C171.637 276.821 170.187 276.033 168.628 275.189C168.628 275.189 168.628 275.189 168.615 275.175C167.325 274.458 165.979 273.712 164.573 272.931C163.658 272.436 162.717 271.911 161.742 271.388C157.824 269.262 154.05 268.006 150.486 267.496C148.436 267.18 146.431 267.125 144.515 267.301C138.439 267.842 133.141 270.534 128.904 274.591C123.214 280.008 120.683 289.214 123.561 297.238C123.918 298.258 124.247 299.274 124.56 300.276C127.99 299.811 131.895 299.826 136.358 300.426C136.326 300.336 136.313 300.234 136.279 300.142L135.892 298.704C134.728 294.155 134.444 288.93 136.523 285.831C138.379 283.051 141.493 279.485 150.817 282.375C151.866 282.704 153.017 283.109 154.229 283.632C155.068 283.96 155.966 284.349 156.881 284.785C157.372 285.009 157.837 285.232 158.316 285.474C159.814 286.163 161.28 286.851 162.716 287.508C167.549 289.708 172.056 291.671 176.293 293.301C178.285 294.063 180.198 294.751 182.056 295.353C194.853 299.587 204.584 299.916 211.155 293.345C217.23 287.27 219.758 281.058 218.994 274.459Z" fill="url(#paint9_linear_193_42)"/>
<path d="M127.18 321.846C127.196 321.83 127.227 321.83 127.256 321.833C127.272 321.817 127.272 321.786 127.269 321.757L127.18 321.846Z" fill="url(#paint10_linear_193_42)"/>
<path d="M161.414 292.974C164.289 302.314 160.723 305.396 157.958 307.268C154.859 309.347 149.634 309.063 145.083 307.896L143.63 307.494C143.54 307.463 143.438 307.449 143.346 307.415C143.033 307.344 142.704 307.252 142.36 307.176C140.938 306.805 139.335 306.432 137.645 306.146C136.195 305.862 134.665 305.651 133.093 305.515C130.76 305.305 128.365 305.276 125.969 305.549C124.142 305.757 122.347 306.143 120.629 306.758C115.611 308.511 111.152 312.194 108.461 319.079C107.275 322.146 107.139 322.761 107.199 323C106.871 323.897 108.187 324.257 108.56 323.521C110.045 319.886 114.865 317.253 121.93 316.533C121.943 316.699 121.958 316.861 121.956 317.043L122.495 316.472C124.037 316.339 125.701 316.293 127.438 316.354C129.039 316.399 130.7 316.536 132.437 316.775C134.289 317.014 136.221 317.359 138.226 317.808C139.935 318.197 141.688 318.662 143.499 319.216C144.5 319.529 145.517 319.858 146.553 320.231C154.56 323.093 163.777 320.573 169.199 314.888C173.241 310.636 175.948 305.353 176.487 299.274C171.708 297.523 166.681 295.37 161.414 292.974Z" fill="url(#paint11_linear_193_42)"/>
<path d="M254.768 237.307C254.473 236.918 254.156 236.542 253.814 236.201C251.538 233.925 249.785 231.515 246.655 230.451C243.977 229.539 241.643 228.43 239.877 227.115C236.794 224.837 235.64 225.723 233.753 227.099C231.091 229.015 230.957 232.892 233.38 237.743C237.451 245.915 238.665 248.953 237.298 251.781C236.628 253.176 235.13 254.79 232.81 255.281C226.331 256.646 220.476 252.709 212.005 247.591C211.706 247.412 211.393 247.215 211.093 247.037C209.882 246.304 208.547 245.51 207.093 244.656C205.54 243.728 203.882 242.726 202.113 241.678L197.443 238.895C191.995 235.659 186.066 232.159 180.423 228.819C179.065 228.027 177.73 227.323 176.384 226.755C176.384 226.755 176.384 226.755 176.368 226.739C173.984 225.707 171.621 225.047 169.33 224.794C162.73 224.03 156.52 226.56 150.444 232.636C143.873 239.207 144.199 248.936 148.423 261.748C153.435 262.035 158.644 263.533 163.808 266.269C159.437 257.83 157.926 253.055 160.155 248.576C164.692 239.551 171.188 240.54 176.873 243.833C178.371 244.7 179.961 245.627 181.59 246.574C183.314 247.604 185.109 248.653 186.949 249.746C188.415 250.613 189.898 251.496 191.411 252.379C192.98 253.323 194.568 254.247 196.171 255.194C197.887 256.227 199.624 257.243 201.361 258.261C206.586 261.33 211.855 264.681 217.02 267.391L217.036 267.407C219.337 268.605 221.629 269.698 223.874 270.566C226.736 271.688 229.533 272.482 232.271 272.766C248.589 274.503 256.686 263.53 258.676 253.604C259.622 248.863 258.736 242.742 254.768 237.307Z" fill="url(#paint12_linear_193_42)"/>
<path d="M115.117 324.122L115.101 324.138L113.621 325.681L110.596 328.79L104.788 334.808L109.191 339.211L114.701 333.883L127.18 321.847C125.13 321.773 123.291 321.878 121.687 322.104C118.681 322.503 116.465 323.283 115.117 324.122Z" fill="url(#paint13_linear_193_42)"/>
<path d="M142.271 301.489C143.167 301.702 144.111 301.925 145.054 302.18L146.492 302.566C146.655 302.613 146.82 302.658 147.002 302.687L155.982 294.007L158.466 291.612C157.175 291.011 155.845 290.401 154.529 289.767C154.408 289.71 154.289 289.649 154.184 289.607C152.628 288.887 151.28 288.316 150.097 287.912L141.193 297.121L137.795 300.635C139.233 300.848 140.715 301.132 142.271 301.489Z" fill="url(#paint14_linear_193_42)"/>
<path d="M171.067 270.238C171.622 270.55 172.147 270.834 172.67 271.121C174.302 272.001 175.797 272.813 177.175 273.56L190.121 261.029L192.068 259.177C191.049 258.577 190.061 257.978 189.057 257.395C188.491 257.066 187.937 256.722 187.385 256.407C185.903 255.523 184.452 254.672 183.028 253.815L170.381 266.913L168.526 268.832C169.393 269.31 170.244 269.772 171.067 270.238Z" fill="url(#paint15_linear_193_42)"/>
<path d="M249.209 185.031L203.265 232.863L201.364 234.821C203.01 235.809 204.61 236.752 206.14 237.651C207.948 238.745 209.656 239.759 211.213 240.69L258.984 194.805C256.991 193.654 255.121 192.261 253.431 190.571C251.738 188.879 250.347 187.01 249.209 185.031Z" fill="url(#paint16_linear_193_42)"/>
<path d="M615 303.25C613 304.583 609.417 306.417 604.25 308.75C599.25 310.917 593.167 312.833 586 314.5C579 316.333 571.333 317.25 563 317.25C553.5 317.25 543.583 315.833 533.25 313C523.083 310.167 513.583 305.5 504.75 299C495.917 292.5 488.75 283.75 483.25 272.75C477.75 261.75 475 248.083 475 231.75C475 221.25 476.167 211 478.5 201C480.833 191 484.417 181.667 489.25 173C494.25 164.167 500.5 156.5 508 150C515.5 143.333 524.417 138.167 534.75 134.5C545.083 130.667 556.833 128.75 570 128.75C583.833 128.75 595.833 130.917 606 135.25C616.167 139.417 624.25 143.75 630.25 148.25L611.75 181.5C608.083 178.167 603 174.583 596.5 170.75C590 166.917 582.333 164.667 573.5 164C564.5 163.5 556.25 164.75 548.75 167.75C541.417 170.583 535.083 174.917 529.75 180.75C524.417 186.583 520.25 193.583 517.25 201.75C514.417 209.917 513 219 513 229C513 236.833 514.167 244 516.5 250.5C518.833 257 522.167 262.583 526.5 267.25C531 271.917 536.417 275.583 542.75 278.25C549.25 280.75 556.5 282 564.5 282C571.667 282 577.833 281.25 583 279.75C588.167 278.083 592.5 276.333 596 274.5C599.5 272.5 602.167 270.917 604 269.75L615 303.25ZM725.799 315.75C715.299 315.75 704.799 314.083 694.299 310.75C683.965 307.417 674.465 302.25 665.799 295.25C657.299 288.083 650.465 279 645.299 268C640.132 256.833 637.549 243.583 637.549 228.25C637.549 217.25 639.549 205.917 643.549 194.25C647.715 182.417 653.882 171.583 662.049 161.75C670.382 151.75 680.799 143.667 693.299 137.5C705.965 131.333 720.715 128.25 737.549 128.25C748.049 128.25 758.466 129.917 768.799 133.25C779.299 136.583 788.799 141.833 797.299 149C805.966 156 812.882 165.083 818.049 176.25C823.216 187.25 825.799 200.417 825.799 215.75C825.799 226.75 823.716 238.167 819.549 250C815.549 261.667 809.382 272.5 801.049 282.5C792.882 292.333 782.466 300.333 769.799 306.5C757.299 312.667 742.632 315.75 725.799 315.75ZM726.299 280.75C737.632 280.75 747.216 278.833 755.049 275C763.049 271 769.465 265.833 774.299 259.5C779.132 253.167 782.632 246.333 784.799 239C787.132 231.667 788.299 224.583 788.299 217.75C788.299 210.417 786.965 203.5 784.299 197C781.799 190.5 778.216 184.75 773.549 179.75C768.882 174.583 763.382 170.583 757.049 167.75C750.715 164.75 743.715 163.25 736.049 163.25C724.715 163.25 715.132 165.25 707.299 169.25C699.465 173.083 693.132 178.167 688.299 184.5C683.632 190.833 680.215 197.667 678.049 205C676.049 212.333 675.049 219.417 675.049 226.25C675.049 233.417 676.299 240.333 678.799 247C681.299 253.5 684.799 259.333 689.299 264.5C693.799 269.5 699.132 273.5 705.299 276.5C711.632 279.333 718.632 280.75 726.299 280.75ZM1001.69 321.5H1000.69L876.689 195.5L886.689 201.5L873.689 314H836.939L860.439 122.75H861.939L982.939 248.25L975.439 244.75L988.689 130H1025.19L1001.69 321.5Z" fill="white"/>
<path d="M1072.57 314H1037.57L1061.07 122.5H1061.32L1145.82 267.5L1130.82 264L1250.07 122.5H1250.57L1227.07 314H1190.82L1204.32 204.25V223L1131.07 311.5H1130.57L1077.57 223L1085.82 205.75L1072.57 314ZM1284.88 130H1410.38L1406.38 163.75H1318.38L1313.38 204.75H1391.13L1386.88 239.25H1309.13L1304.13 279.25H1395.63L1391.38 314H1262.38L1284.88 130ZM1416.63 314L1439.13 130H1504.13C1520.63 130 1534.3 132.75 1545.13 138.25C1556.13 143.75 1564.63 151.083 1570.63 160.25C1576.63 169.417 1580.63 179.667 1582.63 191C1584.8 202.333 1585.22 213.75 1583.88 225.25C1582.38 238.917 1578.72 251.25 1572.88 262.25C1567.22 273.083 1559.97 282.417 1551.13 290.25C1542.47 297.917 1532.72 303.833 1521.88 308C1511.22 312 1500.13 314 1488.63 314H1416.63ZM1457.13 279H1486.63C1494.8 279 1502.3 277.833 1509.13 275.5C1516.13 273 1522.22 269.417 1527.38 264.75C1532.72 260.083 1537.05 254.25 1540.38 247.25C1543.72 240.083 1545.88 231.917 1546.88 222.75C1548.38 210.75 1547.63 201 1544.63 193.5C1541.63 185.833 1537.47 179.917 1532.13 175.75C1526.8 171.583 1521.22 168.75 1515.38 167.25C1509.72 165.583 1504.8 164.75 1500.63 164.75H1471.13L1457.13 279Z" fill="#9C78C6"/>
<defs>
<filter id="filter0_f_193_42" x="0.985981" y="0.985981" width="442.028" height="442.028" filterUnits="userSpaceOnUse" color-interpolation-filters="sRGB">
<feFlood flood-opacity="0" result="BackgroundImageFix"/>
<feBlend mode="normal" in="SourceGraphic" in2="BackgroundImageFix" result="shape"/>
<feGaussianBlur stdDeviation="8.96403" result="effect1_foregroundBlur_193_42"/>
</filter>
<filter id="filter1_f_193_42" x="101.179" y="101.18" width="253.643" height="253.641" filterUnits="userSpaceOnUse" color-interpolation-filters="sRGB">
<feFlood flood-opacity="0" result="BackgroundImageFix"/>
<feBlend mode="normal" in="SourceGraphic" in2="BackgroundImageFix" result="shape"/>
<feGaussianBlur stdDeviation="4.80473" result="effect1_foregroundBlur_193_42"/>
</filter>
<linearGradient id="paint0_linear_193_42" x1="18.914" y1="222" x2="425.086" y2="222" gradientUnits="userSpaceOnUse">
<stop stop-color="#662EA6"/>
<stop offset="1" stop-color="white"/>
</linearGradient>
<linearGradient id="paint1_linear_193_42" x1="18.914" y1="222" x2="425.086" y2="222" gradientUnits="userSpaceOnUse">
<stop stop-color="#662EA6"/>
<stop offset="1" stop-color="white"/>
</linearGradient>
<linearGradient id="paint2_linear_193_42" x1="300.514" y1="86.0103" x2="143.486" y2="357.99" gradientUnits="userSpaceOnUse">
<stop stop-color="#858EF6"/>
<stop offset="1" stop-color="#8FC5EC" stop-opacity="0"/>
</linearGradient>
<linearGradient id="paint3_linear_193_42" x1="64.9727" y1="222" x2="379.027" y2="222" gradientUnits="userSpaceOnUse">
<stop stop-color="#662EA6"/>
<stop offset="1" stop-color="white"/>
</linearGradient>
<linearGradient id="paint4_linear_193_42" x1="103.114" y1="340.887" x2="286.242" y2="157.759" gradientUnits="userSpaceOnUse">
<stop offset="0.356551" stop-color="#342281"/>
<stop offset="0.73466" stop-color="white"/>
</linearGradient>
<linearGradient id="paint5_linear_193_42" x1="103.114" y1="340.887" x2="286.242" y2="157.759" gradientUnits="userSpaceOnUse">
<stop offset="0.356551" stop-color="#342281"/>
<stop offset="0.73466" stop-color="white"/>
</linearGradient>
<linearGradient id="paint6_linear_193_42" x1="103.114" y1="340.887" x2="286.242" y2="157.759" gradientUnits="userSpaceOnUse">
<stop offset="0.356551" stop-color="#342281"/>
<stop offset="0.73466" stop-color="white"/>
</linearGradient>
<linearGradient id="paint7_linear_193_42" x1="103.114" y1="340.887" x2="286.242" y2="157.759" gradientUnits="userSpaceOnUse">
<stop offset="0.356551" stop-color="#342281"/>
<stop offset="0.73466" stop-color="white"/>
</linearGradient>
<linearGradient id="paint8_linear_193_42" x1="103.114" y1="340.887" x2="286.242" y2="157.759" gradientUnits="userSpaceOnUse">
<stop offset="0.356551" stop-color="#342281"/>
<stop offset="0.73466" stop-color="white"/>
</linearGradient>
<linearGradient id="paint9_linear_193_42" x1="103.114" y1="340.887" x2="286.242" y2="157.759" gradientUnits="userSpaceOnUse">
<stop offset="0.356551" stop-color="#342281"/>
<stop offset="0.73466" stop-color="white"/>
</linearGradient>
<linearGradient id="paint10_linear_193_42" x1="103.116" y1="340.886" x2="286.232" y2="157.77" gradientUnits="userSpaceOnUse">
<stop offset="0.356551" stop-color="#342281"/>
<stop offset="0.73466" stop-color="white"/>
</linearGradient>
<linearGradient id="paint11_linear_193_42" x1="103.114" y1="340.887" x2="286.242" y2="157.759" gradientUnits="userSpaceOnUse">
<stop offset="0.356551" stop-color="#342281"/>
<stop offset="0.73466" stop-color="white"/>
</linearGradient>
<linearGradient id="paint12_linear_193_42" x1="103.114" y1="340.887" x2="286.242" y2="157.759" gradientUnits="userSpaceOnUse">
<stop offset="0.356551" stop-color="#342281"/>
<stop offset="0.73466" stop-color="white"/>
</linearGradient>
<linearGradient id="paint13_linear_193_42" x1="103.114" y1="340.887" x2="286.242" y2="157.759" gradientUnits="userSpaceOnUse">
<stop offset="0.356551" stop-color="#342281"/>
<stop offset="0.73466" stop-color="white"/>
</linearGradient>
<linearGradient id="paint14_linear_193_42" x1="103.114" y1="340.887" x2="286.242" y2="157.759" gradientUnits="userSpaceOnUse">
<stop offset="0.356551" stop-color="#342281"/>
<stop offset="0.73466" stop-color="white"/>
</linearGradient>
<linearGradient id="paint15_linear_193_42" x1="103.114" y1="340.887" x2="286.242" y2="157.759" gradientUnits="userSpaceOnUse">
<stop offset="0.356551" stop-color="#342281"/>
<stop offset="0.73466" stop-color="white"/>
</linearGradient>
<linearGradient id="paint16_linear_193_42" x1="103.114" y1="340.887" x2="286.242" y2="157.759" gradientUnits="userSpaceOnUse">
<stop offset="0.356551" stop-color="#342281"/>
<stop offset="0.73466" stop-color="white"/>
</linearGradient>
</defs>
</svg>
